<svg width="16" height="16" viewBox="0 0 16 16" fill="none" xmlns="http://www.w3.org/2000/svg">
<g clip-path="url(#clip0)">
<path d="M1.66666 7C0.748 7 0 7.748 0 8.66666V14C0 14.9187 0.748 15.6667 1.66666 15.6667H3.66666C4.042 15.6667 4.38731 15.54 4.66666 15.3293V7H1.66666Z" fill="#ACACAC"/>
<path d="M15.9999 9.50003C15.9999 9.09937 15.8413 8.72603 15.5659 8.45069C15.8773 8.11003 16.0359 7.65334 15.9926 7.17803C15.9146 6.33069 15.1512 5.66669 14.2539 5.66669H10.1359C10.3399 5.04734 10.6666 3.91203 10.6666 3.00003C10.6666 1.55403 9.43791 0.333374 8.66656 0.333374C7.97391 0.333374 7.47922 0.723374 7.45791 0.739374C7.37925 0.802718 7.33325 0.898718 7.33325 1.00003V3.26069L5.41325 7.42003L5.33325 7.46069V14.606C5.87591 14.862 6.56256 15 6.99991 15H13.1193C13.8453 15 14.4806 14.5107 14.6299 13.8354C14.7066 13.488 14.6619 13.138 14.5093 12.834C15.0019 12.586 15.3333 12.0787 15.3333 11.5C15.3333 11.264 15.2793 11.038 15.1766 10.8334C15.6693 10.5854 15.9999 10.078 15.9999 9.50003Z" fill="#ACACAC"/>
</g>
<defs>
<clipPath id="clip0">
<rect width="16" height="16" fill="white"/>
</clipPath>
</defs>
</svg>
