<svg width="19" height="19" viewBox="0 0 19 19" fill="none" xmlns="http://www.w3.org/2000/svg">
<g opacity="0.2">
<path d="M9.5 0C4.26138 0 0 4.26138 0 9.5C0 14.7386 4.26138 19 9.5 19C14.7386 19 19 14.7379 19 9.5C19 4.26212 14.7386 0 9.5 0ZM9.5 17.5283C5.07378 17.5283 1.47172 13.927 1.47172 9.5C1.47172 5.07304 5.07378 1.47172 9.5 1.47172C13.9262 1.47172 17.5283 5.07304 17.5283 9.5C17.5283 13.927 13.927 17.5283 9.5 17.5283Z" fill="#202020"/>
<path d="M13.1793 8.6979H10.2359V5.75445C10.2359 5.34825 9.90696 5.01858 9.50002 5.01858C9.09308 5.01858 8.76414 5.34825 8.76414 5.75445V8.6979H5.8207C5.41376 8.6979 5.08482 9.02757 5.08482 9.43377C5.08482 9.83997 5.41376 10.1697 5.8207 10.1697H8.76414V13.1131C8.76414 13.5193 9.09308 13.849 9.50002 13.849C9.90696 13.849 10.2359 13.5193 10.2359 13.1131V10.1697H13.1793C13.5863 10.1697 13.9152 9.83997 13.9152 9.43377C13.9152 9.02757 13.5863 8.6979 13.1793 8.6979Z" fill="#202020"/>
</g>
</svg>
