<svg width="22" height="22" viewBox="0 0 22 22" fill="none" xmlns="http://www.w3.org/2000/svg">
<path d="M19.6456 7.80218L19.645 7.80209L14.4402 7.00706L12.1012 2.02478L12.1011 2.02473C11.8775 1.54842 11.4027 1.36106 11.0132 1.36106C10.6236 1.36106 10.1488 1.54842 9.92517 2.02473L9.92511 2.02485L7.58678 7.00706L2.38209 7.80209L2.38165 7.80215C1.4095 7.95135 1.02346 9.13352 1.70351 9.83006C1.70352 9.83007 1.70354 9.83009 1.70355 9.8301C1.70364 9.8302 1.70373 9.83029 1.70383 9.83039L5.50432 13.7259L4.60463 19.2412C4.60461 19.2414 4.60459 19.2415 4.60457 19.2416C4.44289 20.2309 5.49649 20.9735 6.37321 20.487C6.37352 20.4869 6.37383 20.4867 6.37413 20.4865L11.0135 17.9226L15.6531 20.4874C15.6535 20.4876 15.6538 20.4878 15.6542 20.488C15.6542 20.488 15.6542 20.488 15.6543 20.488C16.5183 20.9669 17.5865 20.246 17.4225 19.2423C17.4225 19.2422 17.4225 19.2421 17.4224 19.242L16.5227 13.7266L20.3236 9.83081L20.3237 9.83061C21.0033 9.13345 20.617 7.9515 19.6456 7.80218Z" fill="#FFC107" stroke="white" stroke-width="1.27789"/>
</svg>
