<svg width="16" height="16" viewBox="0 0 16 16" fill="none" xmlns="http://www.w3.org/2000/svg">
<g clip-path="url(#clip0)">
<path d="M1.66666 9C0.748 9 0 8.252 0 7.33334V2C0 1.08134 0.748 0.333344 1.66666 0.333344H3.66666C4.042 0.333344 4.38731 0.46 4.66666 0.670688V9H1.66666Z" fill="#ACACAC"/>
<path d="M15.9999 6.49997C15.9999 6.90063 15.8413 7.27397 15.5659 7.54931C15.8773 7.88997 16.0359 8.34666 15.9926 8.82197C15.9146 9.66931 15.1512 10.3333 14.2539 10.3333H10.1359C10.3399 10.9527 10.6666 12.088 10.6666 13C10.6666 14.446 9.43791 15.6666 8.66656 15.6666C7.97391 15.6666 7.47922 15.2766 7.45791 15.2606C7.37925 15.1973 7.33325 15.1013 7.33325 15V12.7393L5.41325 8.57997L5.33325 8.53931V1.39397C5.87591 1.13797 6.56256 0.999969 6.99991 0.999969H13.1193C13.8453 0.999969 14.4806 1.48931 14.6299 2.16463C14.7066 2.51197 14.6619 2.86197 14.5093 3.16597C15.0019 3.41397 15.3333 3.92131 15.3333 4.49997C15.3333 4.73597 15.2793 4.96197 15.1766 5.16663C15.6693 5.41463 15.9999 5.92197 15.9999 6.49997Z" fill="#ACACAC"/>
</g>
<defs>
<clipPath id="clip0">
<rect width="16" height="16" fill="white" transform="matrix(1 0 0 -1 0 16)"/>
</clipPath>
</defs>
</svg>
